<?xml version="1.0" standalone="no"?>
<!DOCTYPE svg PUBLIC "-//W3C//DTD SVG 20010904//EN"
 "http://www.w3.org/TR/2001/REC-SVG-20010904/DTD/svg10.dtd">
<svg version="1.0" xmlns="http://www.w3.org/2000/svg"
 width="563.000000pt" height="563.000000pt" viewBox="0 0 563.000000 563.000000"
 preserveAspectRatio="xMidYMid meet">

<g transform="translate(0.000000,563.000000) scale(0.100000,-0.100000)"
fill="#000000" stroke="none">
<path d="M1705 5473 c-186 -17 -386 -67 -545 -137 -205 -90 -370 -207 -535
-377 -203 -211 -336 -442 -410 -714 -60 -220 -58 -166 -62 -1355 -3 -708 0
-1131 6 -1198 43 -420 197 -750 490 -1043 203 -203 405 -329 662 -413 259 -84
283 -86 1502 -86 1227 0 1250 1 1507 86 631 208 1077 761 1149 1426 15 132 15
2148 0 2289 -39 389 -195 729 -462 1006 -259 268 -562 430 -942 500 -80 15
-208 17 -1205 19 -613 0 -1133 -1 -1155 -3z"/>
</g>
</svg>
